<?xml version="1.0" encoding="utf-8"?>
<!-- Generator: Adobe Illustrator 22.0.1, SVG Export Plug-In . SVG Version: 6.00 Build 0)  -->
<svg version="1.1" id="Layer_1" xmlns="http://www.w3.org/2000/svg" xmlns:xlink="http://www.w3.org/1999/xlink" x="0px" y="0px"
	 viewBox="0 0 1366 768" style="enable-background:new 0 0 1366 768;" xml:space="preserve">
<style type="text/css">
	.st0{fill:#FFFFFF;}
	.st1{font-family:'ArialRoundedMTBold';}
	.st2{font-size:447.2426px;}
	.st3{font-size:30.0681px;}
	.st4{fill:none;stroke:#FFFFFF;stroke-width:15;stroke-linecap:round;stroke-miterlimit:10;}
</style>
<g>
	<text transform="matrix(1 0 0 1 101.001 541.0439)"><tspan x="0" y="0" class="st0 st1 st2">R</tspan><tspan x="321.7" y="0" class="st0 st1 st3"> </tspan><tspan x="329.2" y="0" class="st0 st1 st2">O</tspan><tspan x="683.4" y="0" class="st0 st1 st3"> </tspan><tspan x="690.9" y="0" class="st0 st1 st2">B</tspan><tspan x="1012.6" y="0" class="st0 st1 st3"> </tspan></text>
	<path class="st4" d="M1138.8,272.6c-9.5-12.2-8.2-30,2.9-39.9c11.1-9.9,27.8-8,37.3,4.1"/>
	<path class="st4" d="M1146.1,300.2c0-31.4,23.6-56.8,52.7-56.8s52.7,25.4,52.7,56.8"/>
	<path class="st4" d="M1220.8,236.5c9.2-11.1,24.9-12.3,35.1-2.6c10.2,9.7,10.9,26.5,1.7,37.6"/>
	<path class="st0" d="M1199.6,533.3L1199.6,533.3c-16.6,0-30.2-13.6-30.2-30.2V316.4c0-16.6,13.6-30.2,30.2-30.2h0
		c16.6,0,30.2,13.6,30.2,30.2v186.7C1229.8,519.7,1216.2,533.3,1199.6,533.3z"/>
</g>
</svg>
