<?xml version="1.0" standalone="no"?>
<!DOCTYPE svg PUBLIC "-//W3C//DTD SVG 20010904//EN"
 "http://www.w3.org/TR/2001/REC-SVG-20010904/DTD/svg10.dtd">
<svg version="1.0" xmlns="http://www.w3.org/2000/svg"
 width="512.000000pt" height="512.000000pt" viewBox="0 0 512.000000 512.000000"
 preserveAspectRatio="xMidYMid meet">

<g transform="translate(0.000000,512.000000) scale(0.100000,-0.100000)"
fill="#000000" stroke="none">
<path d="M0 3564 l0 -1555 49 58 c68 81 318 326 426 418 414 353 891 624 1340
760 619 188 1219 143 1855 -137 307 -135 612 -326 914 -572 121 -98 409 -376
487 -469 l49 -58 0 1555 0 1556 -2560 0 -2560 0 0 -1556z m2609 782 c49 -26
51 -42 51 -387 0 -257 -3 -325 -14 -348 -35 -66 -137 -66 -172 0 -20 39 -20
662 0 698 26 47 84 63 135 37z m-1616 -287 c31 -16 445 -429 463 -461 48 -92
-42 -182 -134 -134 -15 8 -127 115 -249 239 -220 221 -223 224 -223 266 0 77
76 124 143 90z m3248 -18 c23 -23 29 -38 29 -72 0 -42 -3 -45 -222 -266 -123
-124 -235 -231 -250 -239 -92 -48 -182 42 -134 134 16 30 430 444 461 461 38
20 84 13 116 -18z"/>
<path d="M2375 3154 c-574 -60 -1131 -307 -1674 -743 -118 -94 -301 -259 -308
-277 -11 -30 186 -282 338 -430 399 -386 904 -632 1479 -721 142 -21 528 -25
665 -5 303 43 580 128 840 256 372 183 684 436 911 739 125 166 122 147 34
230 -532 500 -1182 843 -1765 932 -105 16 -432 28 -520 19z m325 -308 c305
-56 552 -283 636 -587 25 -89 25 -309 0 -398 -147 -532 -755 -765 -1216 -466
-219 142 -373 427 -358 662 4 57 8 69 32 89 29 26 83 32 117 14 29 -16 49 -64
49 -118 0 -68 34 -192 72 -265 48 -92 165 -205 258 -251 240 -117 505 -74 690
113 87 87 131 164 160 277 25 98 25 190 0 288 -29 113 -73 190 -160 277 -165
166 -390 219 -618 143 -87 -28 -119 -27 -152 6 -38 38 -38 102 -1 139 25 25
120 60 206 76 92 17 193 17 285 1z m-691 -300 c59 -31 67 -102 17 -152 -38
-38 -72 -43 -116 -17 -111 65 -16 228 99 169z m678 -214 c65 -34 110 -78 140
-140 23 -47 28 -70 28 -132 0 -122 -56 -213 -168 -272 -60 -33 -194 -33 -254
0 -65 34 -110 78 -138 137 -82 166 -5 355 172 421 54 20 167 13 220 -14z"/>
<path d="M2514 2149 c-25 -13 -54 -60 -54 -89 0 -49 51 -100 100 -100 49 0
100 51 100 100 0 71 -81 120 -146 89z"/>
<path d="M192 1929 c-42 -41 -57 -49 -89 -49 -43 0 -80 21 -93 54 -5 12 -9
-396 -9 -956 l-1 -978 2560 0 2560 0 -1 978 c0 560 -4 968 -9 956 -13 -33 -50
-54 -94 -54 -35 0 -46 7 -89 51 -43 45 -51 50 -59 34 -65 -116 -327 -404 -498
-547 -275 -231 -675 -444 -1024 -544 -563 -162 -1135 -150 -1688 37 -300 101
-614 272 -865 471 -165 131 -372 348 -495 519 l-55 76 -51 -48z"/>
</g>
</svg>
